<?xml version="1.0" encoding="UTF-8"?>
<svg id="Layer_2" data-name="Layer 2" xmlns="http://www.w3.org/2000/svg" xmlns:xlink="http://www.w3.org/1999/xlink" viewBox="0 0 221.01 209.83">
  <defs>
    <style>
      .cls-1 {
        fill: none;
      }

      .cls-2 {
        filter: url(#drop-shadow-1);
      }

      .cls-3 {
        fill: #ef3e2e;
      }

      .cls-4 {
        fill: #2eb16e;
      }

      .cls-5 {
        fill: #dc3627;
      }
    </style>
    <filter id="drop-shadow-1" x="-2.19" y="172.23" width="227.76" height="42.24" filterUnits="userSpaceOnUse">
      <feOffset dx="1.09" dy="1.09"/>
      <feGaussianBlur result="blur" stdDeviation="1.09"/>
      <feFlood flood-color="#19171c" flood-opacity=".25"/>
      <feComposite in2="blur" operator="in"/>
      <feComposite in="SourceGraphic"/>
    </filter>
  </defs>
  <g id="Layer_8" data-name="Layer 8">
    <g>
      <g>
        <path class="cls-1" d="M125.12,40.49l-.24-.24c-.91-.92-1.85-1.87-2.89-2.57-.82-.58-1.83-.86-2.95-.81-1.9.08-3.69,1.09-4.56,2.58-1.62,2.63-.11,5.62,1.68,7.38l.15.15c3.06,2.97,7.47,3.99,11.73,4.98l.1.02c.28.05.63.14,1,.23.76.19,1.63.4,2.19.38.08,0,.13-.01.17-.02.75-2.27-3.98-9.91-6.38-12.07Z"/>
        <path class="cls-1" d="M177.93,63.09c-.3-.05-.64-.08-.97-.06-1.15.05-2.45.55-2.66,1.81-.2.9.16,1.56.5,1.96.68.81,1.83,1.33,2.86,1.28h.23c1.5-.19,3.37-.95,4.02-2.06-.07-.64-2.17-2.57-3.98-2.93Z"/>
        <path class="cls-1" d="M117.54,30.08l.04.03c2.59,1.81,5.63,2.7,8.77,2.56t0,0c1.13-.05,2.27-.23,3.4-.53l.1-.02c5.98-.95,11.28-2.64,16.2-5.16,4.38-1.97,8.47-4.74,12.21-8.26.04-.04.08-.08.12-.11-1.81.3-3.67.8-5.47,1.28l-1.35.36c-2.13.72-4.48,1.13-7.33,1.25-2.19.09-4.42,0-6.57-.08-1.71-.07-3.49-.14-5.21-.11-.29,0-.58,0-.87,0-.4,0-.79,0-1.18.01-.73.03-1.27.12-1.75.3-.98.37-1.85,1.32-2.77,2.33-.77.85-1.58,1.73-2.55,2.38-1.8,1.28-4.47,2.83-7.1,3.12.35.17.7.34,1.04.51l.25.14Z"/>
        <path class="cls-1" d="M174.25,81.5c-.05.09-.1.29-.07.52.03.23.11.39.18.45.24.2.79.34,1.4.32,0,0,.37-.08.57-.12.61-.13,1.46-.31,1.83-.57.17-.11.24-.28.24-.39-.77-.48-1.78-.71-2.65-.67-.44.02-1.05.12-1.5.47Z"/>
        <path class="cls-1" d="M100.23,24.77c4.34.75,7.98,1.63,11.17,2.71-.39-1.06-.2-2.75,2.24-5.17,2.08-2.35,4.87-3.37,7.57-4.36,1.03-.38,2.1-.77,3.08-1.23,1.24-.81,1.67-2.7,2.09-4.53.01-.11.05-.32.1-.54.07-.33.21-1.04.15-1.35-.74.09-1.6.57-2.44,1.03-.54.3-1.09.6-1.65.83-3.39,1.76-7.06,3.52-11.14,5.33l-1.72.87c-3.04,1.53-6.19,3.1-9.06,4.86-.98.62-1.35,1.03-1.49,1.23.25.13.77.25.99.3l.12.03Z"/>
        <path class="cls-1" d="M93.94,45.74c1.6,1.56,3.57,2.37,5.55,2.28.25-.01.51-.04.77-.08,1.27-.15,2.28-.72,2.88-1.61.61-.9.78-2.05.46-3.23-1.3-4.59-4.24-9.42-8.52-13.95-.14-.12-.28-.13-.38-.13-.27.01-.6.24-.83.57-1.85,2.35-2.92,5.59-2.94,8.95v.17c-.03,2.5,1.12,5.18,3.01,7.02Z"/>
        <path class="cls-3" d="M205.96,52.31c-.17-.66-.34-1.33-.5-2-.82-3.29-1.66-6.7-3.3-9.68-.67-1.24-1.31-2.56-1.93-3.83-1.53-3.13-3.11-6.36-5.31-9.19-.79-.96-1.55-1.93-2.31-2.9-2.75-3.51-5.59-7.14-9.51-9.9-.81-.55-1.61-1.12-2.41-1.68-3.92-2.76-7.98-5.62-12.67-7.19-5.71-2.17-11.61-4.41-17.75-4.15-.3.01-.6.03-.9.06h-.15s-.14.07-.14.07c-1.58.63-1.68,1.59-1.59,2.12.25,1.53,2.64,2.44,3.81,2.51.73.12,1.46.23,2.19.34,2.71.42,5.27.81,7.83,1.5,4.99,1.38,10.06,3.8,15.46,7.38,18.87,13.54,29.49,39.36,26.42,64.26-1.59,16.92-10.5,33.32-24.44,45.02-14.99,12.84-37.35,20.79-61.34,21.82-15.6.67-30.68-1.58-43.59-6.49-20.67-8.49-35.09-19.26-44.09-32.96-11.22-16.1-15.23-35.08-11-52.08,3.84-15.45,13.89-27.74,29.08-35.55,5.69-3.14,11.96-5.11,19.21-6.03l.43-.06c.92-.12,1.97-.26,2.78-.71,1.51-.78,1.48-1.83,1.39-2.25-.19-.93-1.14-1.63-2.43-1.74-.42-.02-.84-.02-1.26,0-1.38.06-2.77.29-4.1.51-.73.12-1.45.24-2.23.34-17.76,3.5-34.18,15.73-42.87,31.91-7.83,14.47-8.46,33.45-1.72,52.11,7.41,19.16,23.12,35.49,44.21,45.97,3.19,1.76,6.66,3.1,10.02,4.38.89.34,1.78.68,2.63,1.02,4.47,1.99,8.93,3.32,13.59,4.06l.21.05c10.14,1.89,19.9,2.65,29.01,2.26,3.37-.14,6.71-.45,9.89-.9,11.85-1.14,23.2-4.1,33.72-8.8,23.28-10.02,40.96-30.04,46.17-52.25,2.82-12.48,2.64-25.75-.49-37.35ZM205.48,89.44c-5.48,23.39-23.89,42.22-45.59,51.56-10.59,4.73-21.85,7.61-33.42,8.73-12.84,1.82-25.94,1.02-38.62-1.35l-.18-.04c-4.66-.74-9.05-2.06-13.39-4-4.26-1.68-8.62-3.17-12.57-5.36-19.16-9.52-35.95-25.26-43.76-45.46-5.9-16.34-6.8-35.62,1.67-51.28,8.53-15.89,24.44-27.9,42.19-31.4,2.42-.31,4.93-.94,7.36-.83,1.4.12,2.23,1.26.61,2.1-.79.43-1.95.53-2.89.66-6.88.87-13.45,2.78-19.55,6.14C12.46,36.83,7.48,77.22,28.92,107.98c10.46,15.92,27.2,26.2,44.53,33.32,32.7,12.44,78.96,7.63,105.96-15.49,13.6-11.42,23.1-27.84,24.78-45.69,2.99-24.25-6.72-50.74-26.83-65.17-4.86-3.22-10.14-5.98-15.78-7.53-3.34-.9-6.72-1.32-10.13-1.87-1.53-.09-4.55-1.7-2.01-2.71,6.23-.52,12.17,1.73,18.21,4.03,5.53,1.85,10.12,5.5,14.87,8.76,4.84,3.4,7.95,8.14,11.61,12.61,3,3.87,4.84,8.58,7.13,12.86,1.91,3.47,2.71,7.58,3.72,11.47,3.23,11.94,3.18,24.97.49,36.88Z"/>
        <path class="cls-3" d="M204.99,52.56c-1.01-3.88-1.81-7.99-3.72-11.47-2.28-4.27-4.13-8.99-7.13-12.86-3.66-4.47-6.77-9.21-11.61-12.61-4.76-3.26-9.34-6.91-14.87-8.76-6.05-2.3-11.98-4.54-18.21-4.03-2.54,1.01.48,2.62,2.01,2.71,3.41.55,6.79.97,10.13,1.87,5.63,1.56,10.92,4.31,15.78,7.53,20.11,14.43,29.82,40.92,26.83,65.17-1.68,17.84-11.18,34.27-24.78,45.69-27,23.12-73.27,27.94-105.96,15.49-17.33-7.12-34.07-17.39-44.53-33.32C7.48,77.22,12.46,36.83,47.34,18.91c6.09-3.36,12.67-5.27,19.55-6.14.94-.14,2.11-.23,2.89-.66,1.62-.84.79-1.98-.61-2.1-2.43-.1-4.94.53-7.36.83-17.75,3.5-33.65,15.52-42.19,31.4-8.47,15.65-7.57,34.93-1.67,51.28,7.81,20.19,24.6,35.94,43.76,45.46,3.95,2.19,8.31,3.68,12.57,5.36,4.35,1.93,8.74,3.26,13.39,4l.18.04c12.68,2.37,25.78,3.17,38.62,1.35,11.58-1.11,22.83-3.99,33.42-8.73,21.69-9.34,40.11-28.16,45.59-51.56,2.69-11.91,2.74-24.94-.49-36.88Z"/>
        <path class="cls-4" d="M73.38,2.65c1.74,5.41,5.59,9.77,9.32,13.98l1.12,1.27c1.57,1.77,3.22,3.32,4.86,4.58.21.18.37.33.49.45-.05,0-.12,0-.18.01-.33.01-.66,0-.92-.02h-.22s-1.1-.09-1.1-.09c-3.36-.26-6.83-.52-10.25-1.16-6.49-.73-11.67-1.81-16.36-3.44l-.11-.03c-.65-.18-1.54-.42-2.34-.38-.58.02-1.06.19-1.39.46-.89.67-1.07,1.92-1.13,2.94-.1,2.23.37,4.51,1.4,6.92,2.8,7.64,10.8,12.93,19.04,12.58.61-.03,1.23-.09,1.9-.19.31-.07.67-.13,1.05-.2,2.3-.42,5.46-.99,6.04-3.68l.05-.24-.07-.24c-.17-.62-.74-1.64-2.56-1.57-.93.04-2,.35-2.94.63-.64.19-1.3.38-1.65.39,0,0-.08,0-.08,0l-.08.02c-.64.12-1.31.2-1.97.23-3.01.13-6.03-.68-8.5-2.29-2.11-1.37-3.93-3.44-5.42-6.15-.97-1.83-1.29-3.6-1.03-3.89,0,0,.04-.03.17-.03.13,0,.29.01.44.04,7.64,1.95,15.94,3.22,26.93,4.12.91.07,1.21.29,1.25.36.04.08.04.46-.42,1.25-2.45,4.05-3.17,9.16-1.91,13.69,1.06,3.8,3.36,6.72,6.65,8.45,1.83.98,4.04,1.46,6.22,1.37,3.89-.17,6.92-2.14,8.12-5.31,1.98-6.05-2.72-12.6-6.16-17.39l-.35-.48c-.06-.08-.12-.15-.17-.22.51.06,1.14.2,1.73.33.28.06.55.12.8.17,2.88.63,5.61,1.42,8.08,2.34l.7.27c.62.24,1.69.65,2.17.94-.1.09-.24.21-.45.36-3.85,2.25-5.53,7.23-3.99,11.82,2.51,7.47,10.15,9.43,16.89,11.17,1.73.45,3.37.87,4.95,1.39.69.17,1.28.25,1.82.22,1.24-.05,1.92-.63,2.27-1.1,1.08-1.44.68-3.86.09-6.26-1.13-4.55-3.46-8.82-6.93-12.71-.84-.9-.85-1.29-.86-1.29.01-.02.18-.2.77-.32,9.81-.98,19.61-5.02,29.12-12.01l.09-.07c.36-.33.91-.77,1.54-1.28,2.8-2.25,6.28-5.04,5.76-7.68l-.02-.12-.05-.11c-.73-1.59-2.51-2.34-5.28-2.22-2.43.1-5.16.84-7.04,1.44-3.3,1.11-6.54,1.73-9.64,1.87h-.15c-.51.05-1.02.08-1.53.1-2.62.11-5.33,0-7.96-.12l-1.55-.07c-1.1-.07-1.39-.28-1.48-.37-.25-.24-.11-1.09-.07-1.33.47-2.15.82-4.29,1.02-6.16.15-1.08.02-2.55-.8-3.46-.45-.49-1.06-.75-1.67-.73,0,0-.15,0-.15,0h-.1c-1.39.11-2.65.73-3.87,1.34-.45.22-.89.44-1.39.66-1.18.59-2.38,1.17-3.58,1.75-1.91.92-3.89,1.88-5.79,2.88-2.15,1.19-4.43,2.27-6.64,3.32-4.24,2.01-8.62,4.08-12.42,7.08-.22.17-.43.26-.62.27-.6.03-1.35-.68-2.01-1.35-.63-.64-1.25-1.28-1.88-1.92-4.61-4.68-9.37-9.51-12.43-15.45-.33-.61-.77-1.44-1.34-2.02-.58-.64-1.33-.99-2.04-.96-.52.02-.98.24-1.32.62-.28.31-.59.88-.51,1.8v.11s.04.11.04.11ZM76.47,1.64c.47.49.86,1.19,1.2,1.82,3.54,6.86,9.15,12.12,14.48,17.59,1.12,1.14,2.45,2.35,3.96,1.17,5.68-4.49,12.66-6.84,18.93-10.31,3.04-1.59,6.25-3.08,9.33-4.61,1.6-.68,3.22-1.76,4.9-1.89h.14c1.32-.06,1.7,1.72,1.51,3.05-.21,2.01-.58,4.11-1,6.09-.13.76-.23,1.71.36,2.27.47.47,1.38.59,2.1.64,3.72.15,7.52.39,11.19.09,3.37-.13,6.79-.84,10.02-1.92,2.66-.85,9.69-2.8,11.09.25.51,2.6-5.19,6.36-7,8.03-8.44,6.2-18.17,10.77-28.63,11.82-2.44.48-1.8,1.92-.54,3.28,3.18,3.57,5.54,7.66,6.69,12.27.87,3.54,1.25,6.99-2.96,5.92-7.51-2.47-18.19-3.15-21.13-11.9-1.29-3.86-.09-8.51,3.55-10.64.79-.56,1.26-1.04,1.06-1.48-.28-.69-2.22-1.32-3.62-1.88-2.68-1-5.44-1.78-8.24-2.38-2.35-.47-5.53-1.44-3.37,1.32,3.35,4.68,8.23,11.2,6.34,16.94-1.9,5.04-8.65,5.65-12.91,3.38-7.44-3.91-8.41-14.05-4.35-20.73,1.15-1.96.59-2.95-1.61-3.13-9-.73-18.01-1.85-26.76-4.09-3.33-.71-1.54,3.78-.72,5.32,1.4,2.56,3.29,4.92,5.76,6.52,3.23,2.09,7.36,2.93,11.21,2.2,1.49-.03,5.61-2.17,6.17-.19-.52,2.43-4.27,2.66-6.32,3.12-8.27,1.22-16.91-3.88-19.79-11.76-.89-2.09-1.43-4.27-1.34-6.54.05-.97.22-1.8.73-2.18.66-.55,2.09-.13,2.98.11,5.36,1.86,10.89,2.83,16.51,3.46,3.77.7,7.58.95,11.39,1.24.76.02,2.48.2,2.69-.61.1-.5-.67-1.21-1.13-1.59-1.71-1.31-3.32-2.85-4.76-4.48-3.93-4.48-8.38-9.14-10.23-14.89-.12-1.5,1.18-1.76,2.13-.71Z"/>
        <path class="cls-4" d="M125.79,39.75c-1.02-1.03-2.04-2.09-3.25-2.9-2.78-1.97-7.21-.85-8.92,2.09-1.77,2.87-.51,6.28,1.84,8.59l.14.14c3.3,3.2,7.97,4.26,12.31,5.27,1.41.28,3.68,1.11,4.39.29,1.53-2.77-4.21-11.41-6.51-13.48ZM131.5,52.56s-.1.01-.17.02c-.56.02-1.43-.19-2.19-.38-.37-.09-.72-.18-1-.23l-.1-.02c-4.26-.99-8.66-2.01-11.73-4.98l-.15-.15c-1.79-1.76-3.3-4.74-1.68-7.38.86-1.48,2.65-2.5,4.56-2.58,1.11-.05,2.12.23,2.95.81,1.04.7,1.98,1.65,2.89,2.57l.24.24c2.4,2.16,7.13,9.8,6.38,12.07Z"/>
        <path class="cls-4" d="M100.01,25.75c5.74,1,11.61,2.43,16.84,5.09l.17.09c3.87,2.7,8.49,3.4,13.01,2.18,5.83-.93,11.28-2.59,16.5-5.26,4.63-2.09,8.75-4.95,12.44-8.42.45-.41,1.27-1.24,1.09-1.67-.13-.3-.83-.32-1.77-.17-2.33.39-4.66,1.07-6.95,1.66-6.13,2.07-12.55.94-18.88,1.03-1.41.02-2.82-.11-4.13.38-2.13.8-3.5,3.47-5.53,4.81-2.65,1.88-7.04,4.24-10.1,2.24-1.25-1.33.36-3.42,1.64-4.7,2.76-3.11,6.86-3.75,10.43-5.42,1.63-1.02,2.12-3.17,2.59-5.19.13-.96.74-2.69-.41-3.12-1.6-.04-3.27,1.33-4.79,1.95-3.67,1.9-7.33,3.64-11.17,5.34-3.67,1.85-7.44,3.67-10.9,5.79-.75.47-1.89,1.28-2.03,2.04-.09.93,1.19,1.17,1.94,1.35ZM123.35,26.31c.97-.65,1.77-1.53,2.55-2.38.92-1.01,1.79-1.96,2.77-2.33.48-.18,1.02-.27,1.75-.3.39-.02.79-.01,1.18-.01.29,0,.58,0,.87,0,1.73-.03,3.5.04,5.21.11,2.15.08,4.38.17,6.57.08,2.85-.12,5.2-.53,7.33-1.25l1.35-.36c1.8-.48,3.66-.98,5.47-1.28-.04.04-.08.07-.12.11-3.74,3.51-7.83,6.28-12.21,8.26-4.93,2.52-10.23,4.21-16.2,5.16l-.1.02c-1.13.3-2.28.48-3.4.53t0,0c-3.15.14-6.18-.75-8.77-2.56l-.04-.03-.25-.14c-.34-.17-.69-.35-1.04-.51,2.63-.29,5.3-1.84,7.1-3.12ZM100.62,23.21c2.87-1.76,6.02-3.33,9.06-4.86l1.72-.87c4.08-1.81,7.75-3.56,11.14-5.33.56-.23,1.11-.53,1.65-.83.84-.46,1.7-.94,2.44-1.03.06.3-.08,1.02-.15,1.35-.05.23-.09.44-.1.54-.42,1.83-.86,3.72-2.09,4.53-.99.46-2.05.85-3.08,1.23-2.7.99-5.49,2.02-7.57,4.36-2.44,2.42-2.63,4.11-2.24,5.17-3.19-1.08-6.83-1.96-11.17-2.71l-.12-.03c-.22-.05-.74-.17-.99-.3.14-.2.51-.62,1.49-1.23Z"/>
        <path class="cls-4" d="M89.92,38.73c-.07,5.4,4.72,11.12,10.48,10.21,3.25-.38,4.93-3.15,4.15-6.08-1.53-5.4-4.93-10.33-8.76-14.38-.94-.85-2.1-.38-2.76.55-2.11,2.67-3.1,6.22-3.13,9.52v.18ZM93.86,29.6c.23-.33.56-.56.83-.57.09,0,.24.01.38.13,4.27,4.53,7.22,9.36,8.52,13.95.31,1.18.15,2.33-.46,3.23-.6.89-1.61,1.46-2.88,1.61-.26.04-.51.07-.77.08-1.98.08-3.95-.73-5.55-2.28-1.89-1.84-3.05-4.52-3.01-7.02v-.17c.03-3.36,1.09-6.6,2.94-8.95Z"/>
        <path class="cls-4" d="M89.32,21.71c.46.38,1.22,1.09,1.13,1.59-.22.81-1.93.64-2.69.61-3.8-.3-7.62-.55-11.39-1.24-5.62-.63-11.15-1.61-16.51-3.46-.89-.24-2.32-.66-2.98-.11-.5.38-.67,1.21-.73,2.18-.1,2.26.45,4.45,1.34,6.54,2.88,7.88,11.52,12.98,19.79,11.76,2.06-.45,5.8-.69,6.32-3.12-.56-1.98-4.68.16-6.17.19-3.85.73-7.98-.11-11.21-2.2-2.47-1.6-4.36-3.96-5.76-6.52-.82-1.54-2.61-6.03.72-5.32,8.75,2.24,17.76,3.36,26.76,4.09,2.2.17,2.76,1.17,1.61,3.13-4.06,6.69-3.09,16.83,4.35,20.73,4.26,2.27,11.01,1.66,12.91-3.38,1.88-5.75-2.99-12.27-6.34-16.94-2.16-2.76,1.02-1.79,3.37-1.32,2.8.61,5.56,1.39,8.24,2.38,1.4.55,3.33,1.18,3.62,1.88.21.45-.27.92-1.06,1.48-3.64,2.13-4.84,6.78-3.55,10.64,2.95,8.76,13.63,9.43,21.13,11.9,4.21,1.07,3.84-2.38,2.96-5.92-1.15-4.62-3.51-8.71-6.69-12.27-1.26-1.36-1.9-2.8.54-3.28,10.47-1.05,20.19-5.62,28.63-11.82,1.81-1.68,7.51-5.43,7-8.03-1.4-3.05-8.42-1.1-11.09-.25-3.23,1.08-6.66,1.79-10.02,1.92-3.68.3-7.47.06-11.19-.09-.72-.05-1.63-.17-2.1-.64-.59-.56-.49-1.51-.36-2.27.43-1.98.79-4.08,1-6.09.19-1.33-.19-3.11-1.51-3.05h-.14c-1.68.12-3.3,1.21-4.9,1.89-3.08,1.54-6.29,3.02-9.33,4.61-6.27,3.48-13.25,5.82-18.93,10.31-1.51,1.18-2.83-.03-3.96-1.17-5.33-5.47-10.94-10.73-14.48-17.59-.34-.63-.72-1.34-1.2-1.82-.95-1.05-2.26-.79-2.13.71,1.85,5.75,6.3,10.41,10.23,14.89,1.44,1.62,3.05,3.16,4.76,4.48ZM132.29,53.23c-.71.82-2.97,0-4.39-.29-4.34-1.01-9.01-2.07-12.31-5.27l-.14-.14c-2.35-2.32-3.61-5.72-1.84-8.59,1.71-2.94,6.15-4.06,8.92-2.09,1.2.81,2.23,1.87,3.25,2.9,2.3,2.07,8.04,10.72,6.51,13.48ZM100.1,22.36c3.46-2.12,7.23-3.94,10.9-5.79,3.84-1.7,7.5-3.44,11.17-5.34,1.52-.62,3.19-1.99,4.79-1.95,1.15.44.54,2.17.41,3.12-.47,2.03-.96,4.18-2.59,5.19-3.56,1.67-7.66,2.31-10.43,5.42-1.28,1.28-2.89,3.36-1.64,4.7,3.05,2,7.45-.36,10.1-2.24,2.02-1.34,3.4-4.01,5.53-4.81,1.31-.49,2.73-.35,4.13-.38,6.33-.09,12.74,1.04,18.88-1.03,2.29-.6,4.62-1.28,6.95-1.66.94-.15,1.64-.13,1.77.17.17.42-.64,1.26-1.09,1.67-3.69,3.47-7.8,6.33-12.44,8.42-5.23,2.67-10.67,4.33-16.5,5.26-4.53,1.22-9.14.53-13.01-2.18l-.17-.09c-5.22-2.66-11.1-4.09-16.84-5.09-.75-.17-2.03-.42-1.94-1.35.14-.76,1.28-1.57,2.03-2.04ZM123.74,21.17c-1.89,2.48-4.68,4.05-7.72,4.51l-.03-.05c1.88-2.41,4.7-3.9,7.75-4.46ZM93.05,29.03c.65-.93,1.82-1.4,2.76-.55,3.82,4.05,7.23,8.98,8.76,14.38.78,2.94-.91,5.7-4.15,6.08-5.77.9-10.56-4.81-10.48-10.21v-.18c.03-3.29,1.02-6.85,3.13-9.52Z"/>
        <path class="cls-3" d="M172.38,103.85c-.59.23-1.18.36-1.77.38-1.33.06-2.58-.41-3.64-1.38-.61-.51-1.54-1.29-2.55-1.28h-.06s-.06,0-.06,0c-.99.13-1.66.7-1.84,1.56-.29,1.38.84,3.15,1.97,3.84,1.85,1.33,3.93,1.96,6.17,1.87,4.99-.21,9.44-3.99,11.63-7.63l.12-.19c2.71-4.76,5.28-10.34,3.74-15.67-.12-.41-.28-.82-.44-1.23-.29-.74-.56-1.45-.53-2.1.02-.5.34-1.1.63-1.61,1.11-1.91,1.86-4.09,2.23-6.45.27-1.47.09-2.91-.09-4.3-.13-.99-.25-1.93-.21-2.84.27-.88.64-1.74,1.03-2.65.87-2.02,1.78-4.11,1.58-6.52.16-5.43-.91-10.38-3.19-14.72l-.03-.06-.04-.06c-.26-.35-.61-1.11-.99-1.92-1.12-2.4-2.4-5.11-4.35-5.03-.08,0-.16.01-.25.03-.69.12-1.23.54-1.53,1.18-.38.8-.31,1.89.14,2.7l.73,1.39c2.37,4.51,4.82,9.18,4.89,14.28.02,2.09.04,4.68-1.1,6.39-.21-.03-.73-.48-.98-.7-.24-.21-.48-.41-.63-.51-1.83-1.55-4.04-2.35-6.2-2.25-1.28.05-2.5.41-3.71,1.09-2.06,1.36-3.31,3.37-3.42,5.52-.1,2.04.84,3.98,2.59,5.4,1.5,1.47,3.5,2.26,5.51,2.18.31-.01.63-.05.85-.09,1.37-.13,2.76-.56,4.28-1.32.27-.15.45-.17.53-.2.01.02.05.11.07.29.13,2.12-.81,6.26-1.96,6.83,0,0,0,0,0,0-.45.02-.99-.24-1.56-.51-.46-.22-.94-.45-1.41-.57-.88-.28-1.87-.4-2.85-.36-1.97.08-3.71.81-4.78,2-.85.95-1.25,2.16-1.15,3.47.04,1.55.6,2.87,1.61,3.81,1.07,1,2.59,1.51,4.27,1.44.52-.02,1.05-.1,1.5-.22,1.05-.19,1.99-.6,2.85-1.02.29-.14.89-.43,1.28-.45.05,0,.09,0,.1,0,0,0,.02.02.03.04,1.65,6.4-2.72,15.22-8.95,18.15ZM182.28,85.37c-.49-1.24-1.9-.6-2.79-.17-.83.4-1.68.77-2.59.94-3.03.78-6.11-.6-6.2-4.08-.27-3.85,4.33-5.12,7.49-4.13,1.16.29,2.29,1.28,3.52,1.11,2.02-.69,2.83-5.93,2.72-7.87-.09-1.33-1.11-1.42-2.07-.91-1.25.62-2.54,1.07-3.9,1.2-2,.36-4.07-.33-5.57-1.8-3.5-2.85-2.77-7.09.68-9.36,2.94-1.66,6.24-1,8.72,1.09.9.63,1.93,2.02,2.96,1.19,1.44-1.95,1.43-4.8,1.41-7.15-.08-5.89-3.16-11.17-5.73-16.13-.47-.83-.4-2.24.68-2.43,1.9-.31,3.57,5.07,4.61,6.52,2.34,4.46,3.23,9.33,3.08,14.28.29,3.25-1.73,6-2.61,8.97-.16,2.37.75,4.78.31,7.14-.33,2.13-1.01,4.25-2.11,6.13-.36.64-.73,1.34-.76,2.06-.06,1.27.66,2.46,1.01,3.66,1.46,5.08-1.16,10.52-3.65,14.9l-.1.16c-3.26,5.4-10.56,9.66-16.36,5.48-1.25-.76-2.57-3.33-.58-3.59.63,0,1.36.6,1.9,1.05,1.8,1.64,4.16,2.04,6.42,1.17,6.56-3.09,11.41-12.32,9.54-19.41Z"/>
        <path class="cls-3" d="M178.13,62.11c-1.96-.36-4.46.37-4.81,2.57-.57,2.53,2.14,4.53,4.44,4.4h.18c1.68-.21,4.11-1.08,4.93-2.73.41-1.38-2.67-3.82-4.74-4.24ZM177.89,68.07h-.23c-1.03.06-2.18-.46-2.86-1.27-.34-.4-.7-1.06-.5-1.96.2-1.26,1.51-1.76,2.66-1.81.34-.01.67,0,.97.06,1.81.37,3.9,2.3,3.98,2.93-.65,1.1-2.52,1.86-4.02,2.05Z"/>
        <path class="cls-3" d="M178.88,80.75c-1.49-.81-3.99-1.15-5.36.05-.53.61-.46,1.94.25,2.46.46.4,1.32.55,2.06.51l.15-.02c.75-.19,2.06-.36,2.76-.86.76-.48.95-1.68.13-2.15ZM178.17,82.09c-.38.27-1.22.44-1.83.57-.2.04-.57.12-.57.12-.61.03-1.16-.12-1.4-.32-.07-.05-.16-.21-.18-.45-.03-.23.02-.43.07-.52.45-.35,1.06-.45,1.5-.47.87-.04,1.89.2,2.65.67,0,.11-.07.28-.24.39Z"/>
        <path class="cls-3" d="M166.33,103.62c-.54-.45-1.27-1.05-1.9-1.05-1.98.26-.67,2.83.58,3.59,5.8,4.18,13.11-.08,16.36-5.48l.1-.16c2.5-4.38,5.12-9.82,3.65-14.9-.35-1.2-1.07-2.38-1.01-3.66.04-.72.4-1.42.76-2.06,1.09-1.88,1.78-4,2.11-6.13.44-2.36-.47-4.77-.31-7.14.88-2.96,2.89-5.72,2.61-8.97.16-4.95-.74-9.83-3.08-14.28-1.04-1.44-2.71-6.83-4.61-6.52-1.08.19-1.15,1.6-.68,2.43,2.57,4.95,5.66,10.23,5.73,16.13.02,2.35.03,5.19-1.41,7.15-1.03.83-2.06-.56-2.96-1.19-2.48-2.09-5.78-2.75-8.72-1.09-3.45,2.27-4.19,6.51-.68,9.36,1.49,1.47,3.57,2.17,5.57,1.8,1.36-.13,2.65-.58,3.9-1.2.96-.51,1.97-.42,2.07.91.12,1.94-.7,7.18-2.72,7.87-1.23.18-2.36-.81-3.52-1.11-3.16-.99-7.76.28-7.49,4.13.09,3.48,3.17,4.85,6.2,4.08.91-.16,1.76-.53,2.59-.94.89-.43,2.3-1.06,2.79.17,1.87,7.09-2.97,16.32-9.54,19.41-2.26.88-4.62.48-6.42-1.17ZM182.86,66.35c-.82,1.65-3.25,2.52-4.93,2.72h-.18c-2.3.14-5.01-1.86-4.44-4.39.36-2.2,2.85-2.92,4.81-2.57,2.07.42,5.15,2.86,4.74,4.24ZM178.74,82.9c-.7.49-2.01.67-2.76.86l-.15.02c-.73.03-1.59-.11-2.06-.51-.71-.52-.78-1.85-.25-2.46,1.36-1.21,3.87-.86,5.36-.05.82.47.63,1.67-.13,2.15Z"/>
      </g>
      <g class="cls-2">
        <path class="cls-5" d="M35.08,209.42l-3.65-25.43s-11.09,23.74-11.09,23.74h-2.54l-9.71-23.51-3.82,25.2H0l5.71-34.9h2.79l10.43,24.8c.14.3.27.6.39.9.13-.27.27-.57.43-.9l11.63-24.8h2.73l5.28,34.9h-4.31Z"/>
        <path class="cls-5" d="M66.22,209.42l-4.7-11.32h-13.27l-4.7,11.32h-4.5l14.57-34.86h2.61l14.62,34.86h-4.64ZM59.92,194.23l-4.45-10.71c-.24-.53-.45-.98-.63-1.38-.18.49-.37.94-.54,1.35l-4.44,10.74h10.06Z"/>
        <path class="cls-5" d="M99.21,209.69s-22.96-26.44-23.28-26.81l.05,1.97v24.57s-4.19,0-4.19,0v-34.9h2.46l21.79,25.12c.53.63,1.02,1.21,1.46,1.76-.02-.63-.02-1.29-.02-1.97v-24.64h4.19v34.9h-2.46Z"/>
        <path class="cls-5" d="M122.85,209.83c-3.08,0-6.62-.17-10.54-.51l-.91-.08v-34.39l.93-.06c3.13-.21,6.31-.32,9.47-.32,5.25,0,9.72,1.66,13.27,4.94,3.57,3.3,5.39,7.82,5.39,13.44,0,2.83-.46,5.38-1.38,7.57-.93,2.23-2.23,4.04-3.87,5.39-3.31,2.67-7.47,4.01-12.36,4.01ZM115.59,205.56c1.85.17,4.28.26,7.26.26,4.02,0,7.27-1.09,9.67-3.24,2.37-2.12,3.57-5.41,3.57-9.77s-1.34-7.86-4.09-10.45c-2.77-2.61-6.1-3.88-10.2-3.88-2.32,0-4.41.05-6.21.16v26.92Z"/>
        <rect class="cls-5" x="147.27" y="174.79" width="4.19" height="34.63"/>
        <path class="cls-5" d="M188.14,209.78c-1.98-.03-3.64-.35-4.92-.94-1.26-.58-2.48-1.48-3.61-2.66-1.07-1.11-3.56-4.36-7.61-9.92-2.37,0-4.59-.08-6.61-.2v13.35h-4.19v-34.42l.93-.07c2.92-.21,5.38-.32,7.33-.32,3.32,0,6.11.88,8.29,2.61,2.25,1.79,3.39,4.33,3.39,7.56,0,2.17-.64,4.22-1.91,6.08-1,1.47-2.11,2.71-3.32,3.7,1,1.36,2.2,2.94,3.58,4.73,2.02,2.62,2.84,3.61,3.17,3.99,1.68,1.8,3.54,2.8,5.67,3.05l.91.11-.11,3.36-.99-.02ZM165.38,192.28c2.05.11,3.99.17,5.8.17,1.03,0,2.22-.77,3.53-2.3,1.37-1.59,2.04-3.38,2.04-5.48s-.64-3.49-1.96-4.5c-1.38-1.06-3.27-1.59-5.62-1.59-1.11,0-2.38.04-3.79.12v13.59Z"/>
        <path class="cls-5" d="M211.27,209.42l-4.7-11.32h-13.27l-4.7,11.32h-4.5l14.57-34.86h2.61l14.62,34.86h-4.64ZM204.96,194.23l-4.45-10.71c-.24-.53-.45-.98-.63-1.38-.18.49-.37.94-.54,1.35l-4.44,10.74h10.06Z"/>
        <rect class="cls-5" x="216.59" y="205" width="4.42" height="4.42"/>
      </g>
    </g>
  </g>
</svg>